# xmcd
#
# Track frame offsets: 
#        150
#        13877
#        31865
#        52942
#        67132
#        85290
#        100580
#        119032
#        132937
#        148895
#        168335
#        186255
#        197767
#        213970
#        242712
#
# Disc length: 3406 seconds
#
# Revision: 0
# Processed by: cddbd v1.5.2PL0 Copyright (c) Steve Scherf et al.
# Submitted via: ExactAudioCopy v1.3
#
DISCID=db0d4c0f
DTITLE=Cathy Jean - I Want
DYEAR=1998
DGENRE=Modern Electric Blues
TTITLE0=Be Glad
TTITLE1=I Want
TTITLE2=**4 in the Morning**
TTITLE3=Unfinished Business
TTITLE4=How Many
TTITLE5=Leave Me Alone
TTITLE6=Why Don't You See Me
TTITLE7=Tallow Shuffle
TTITLE8=Please Stop Seeing that Girl
TTITLE9=I'm Your Girl
TTITLE10=See You Tomorrow
TTITLE11=Blues Singin' Alcoholic
TTITLE12=I Want Your Mother to Know
TTITLE13=Suffer
TTITLE14=Blues Psalm
EXTD=
EXTT0=
EXTT1=
EXTT2=
EXTT3=
EXTT4=
EXTT5=
EXTT6=
EXTT7=
EXTT8=
EXTT9=
EXTT10=
EXTT11=
EXTT12=
EXTT13=
EXTT14=
PLAYORDER=
